<?xml version="1.0" encoding="UTF-8"?>
<!-- Generator: Adobe Illustrator 17.0.1, SVG Export Plug-In . SVG Version: 6.00 Build 0)  -->
<svg id="svg19" width="86px" height="86px" enable-background="new 0 0 86 86" version="1.1" viewBox="0 0 86 86" xml:space="preserve" xmlns="http://www.w3.org/2000/svg"><defs id="defs23">
	
		
	
	
	
	
<linearGradient id="linearGradient321" x1="43.626" x2="43.563" y1="-4.5336" y2="91.992" gradientUnits="userSpaceOnUse"><stop id="stop315" stop-color="#ffd600" offset="0"/><stop id="stop317" stop-color="#ff0" offset="1"/></linearGradient><linearGradient id="linearGradient2274" x1="-4.7815" x2="33.561" y1="33.838" y2="44.951" gradientUnits="userSpaceOnUse"><stop id="stop2268" stop-color="#e6e6e6" offset="0"/><stop id="stop2270" stop-color="#999" offset="1"/></linearGradient></defs>

<path id="path8" d="m85.7 84.277c0 0.786-0.637 1.423-1.423 1.423h-82.554c-0.786 0-1.423-0.637-1.423-1.423v-82.554c0-0.786 0.637-1.423 1.423-1.423h82.553c0.786 0 1.423 0.637 1.423 1.423v82.554z" fill="url(#linearGradient321)"/><path id="path1806" d="m1.7227 0.30078c-0.786 0-1.4219 0.63588-1.4219 1.4219v82.555c0 0.786 0.63588 1.4219 1.4219 1.4219h2.2773v-21.35l12-10.675v-21.35l-12-10.675v-21.35z" fill="url(#linearGradient2274)"/>
<g id="g5791" fill="#4d4d4d" stroke="#333" stroke-width="2"><path id="path5264" d="m7 0.3v15"/><path id="path5270" d="m11 0.3v15"/><path id="path5276" d="m15 0.3v15"/><path id="path5282" d="m19 0.3v21"/><path id="path5288" d="m23 0.3v15"/><path id="path5294" d="m27 0.3v15"/><path id="path5300" d="m31 0.3v15"/><path id="path5306" d="m35 0.3v15"/><path id="path5312" d="m39 0.3v30"/><path id="path5318" d="m43 0.3v15"/><path id="path5324" d="m47 0.3v15"/><path id="path5330" d="m51 0.3v15"/><path id="path5336" d="m55 0.3v15"/><path id="path5342" d="m59 0.3v21"/><path id="path5348" d="m63 0.3v15"/><path id="path5354" d="m67 0.3v15"/><path id="path5360" d="m71 0.3v15"/><path id="path5366" d="m75 0.3v15"/><path id="path5372" d="m79 0.3v30"/><path id="path5378" d="m83 0.3v15"/></g><path id="path5581" d="m7 85.7v-15" fill="#4d4d4d" stroke="#333" stroke-width="2"/><path id="path5583" d="m11 85.7v-15" fill="#4d4d4d" stroke="#333" stroke-width="2"/><path id="path5585" d="m15 85.7v-15" fill="#4d4d4d" stroke="#333" stroke-width="2"/><path id="path5587" d="m19 85.7v-21" fill="#4d4d4d" stroke="#333" stroke-width="2"/><path id="path5589" d="m23 85.7v-15" fill="#4d4d4d" stroke="#333" stroke-width="2"/><path id="path5591" d="m27 85.7v-15" fill="#4d4d4d" stroke="#333" stroke-width="2"/><path id="path5593" d="m31 85.7v-15" fill="#4d4d4d" stroke="#333" stroke-width="2"/><path id="path5595" d="m35 85.7v-15" fill="#4d4d4d" stroke="#333" stroke-width="2"/><path id="path5597" d="m39 85.7v-30" fill="#4d4d4d" stroke="#333" stroke-width="2"/><path id="path5599" d="m43 85.7v-15" fill="#4d4d4d" stroke="#333" stroke-width="2"/><path id="path5601" d="m47 85.7v-15" fill="#4d4d4d" stroke="#333" stroke-width="2"/><path id="path5603" d="m51 85.7v-15" fill="#4d4d4d" stroke="#333" stroke-width="2"/><path id="path5605" d="m55 85.7v-15" fill="#4d4d4d" stroke="#333" stroke-width="2"/><path id="path5607" d="m59 85.7v-21" fill="#4d4d4d" stroke="#333" stroke-width="2"/><path id="path5609" d="m63 85.7v-15" fill="#4d4d4d" stroke="#333" stroke-width="2"/><path id="path5611" d="m67 85.7v-15" fill="#4d4d4d" stroke="#333" stroke-width="2"/><path id="path5613" d="m71 85.7v-15" fill="#4d4d4d" stroke="#333" stroke-width="2"/><path id="path5615" d="m75 85.7v-15" fill="#4d4d4d" stroke="#333" stroke-width="2"/><path id="path5617" d="m79 85.7v-30" fill="#4d4d4d" stroke="#333" stroke-width="2"/><path id="path5619" d="m83 85.7v-15" fill="#4d4d4d" stroke="#333" stroke-width="2"/><g id="text5847" fill="#333" aria-label="1"><path id="path340" d="m41.062 51.107 3.3372 0.34375v1.2318h-10.799v-1.2318l3.3229-0.34375v-14.48l-3.3086 1.0885v-1.2174l5.414-3.1797h2.0338z"/></g><g id="text5921" fill="#333" aria-label="2"><path id="path343" d="m85.087 52.711h-12.174v-2.707q1.2318-1.3177 2.2773-2.3633 2.2916-2.263 3.3515-3.552 1.0599-1.3034 1.5469-2.6927 0.5013-1.3893 0.5013-3.1653 0-1.5612-0.75911-2.5208-0.75911-0.95962-2.0195-0.95962-0.88801 0-1.418 0.1862t-0.97395 0.55859l-0.61588 2.7786h-1.2461v-4.3684q1.1458-0.25781 2.2343-0.42968 1.1029-0.1862 2.3919-0.1862 3.1653 0 4.8411 1.3034 1.6901 1.3034 1.6901 3.7096 0 1.5039-0.5013 2.7356-0.5013 1.2174-1.5898 2.3776-1.0742 1.1601-4.2968 3.7812-1.2318 1.0026-2.664 2.2773h9.4244z"/></g></svg>
