<?xml version="1.0" encoding="UTF-8"?>
<svg id="svg56" width="256" height="512" enable-background="new 0 0 86 86" version="1.1" viewBox="0 0 256 512" xml:space="preserve" xmlns="http://www.w3.org/2000/svg" xmlns:cc="http://creativecommons.org/ns#" xmlns:dc="http://purl.org/dc/elements/1.1/" xmlns:rdf="http://www.w3.org/1999/02/22-rdf-syntax-ns#"><metadata id="metadata62"><rdf:RDF><cc:Work rdf:about=""><dc:format>image/svg+xml</dc:format><dc:type rdf:resource="http://purl.org/dc/dcmitype/StillImage"/></cc:Work></rdf:RDF></metadata>


<path id="path1806" d="m256 0h-256l0.10127 11.083h63.95l31.975 35.944h63.95l31.975-35.944h63.95z" fill="#fff"/><path id="path5264" d="m255.9 20.069h-44.93" fill="#4d4d4d" stroke="#fff" stroke-width="2"/><path id="path5270" d="m255.9 32.05h-44.93" fill="#4d4d4d" stroke="#fff" stroke-width="2"/><path id="path5276" d="m255.9 44.031h-44.93" fill="#4d4d4d" stroke="#fff" stroke-width="2"/><path id="path5282" d="m255.9 56.012h-62.901" fill="#4d4d4d" stroke="#fff" stroke-width="2"/><path id="path5288" d="m255.9 67.993h-44.93" fill="#4d4d4d" stroke="#fff" stroke-width="2"/><path id="path5294" d="m255.9 79.975h-44.93" fill="#4d4d4d" stroke="#fff" stroke-width="2"/><path id="path5300" d="m255.9 91.956h-44.93" fill="#4d4d4d" stroke="#fff" stroke-width="2"/><path id="path5306" d="m255.9 103.94h-44.93" fill="#4d4d4d" stroke="#fff" stroke-width="2"/><path id="path5312" d="m255.9 115.92h-89.859" fill="#4d4d4d" stroke="#fff" stroke-width="2"/><path id="path5318" d="m255.9 127.9h-44.93" fill="#4d4d4d" stroke="#fff" stroke-width="2"/><path id="path5324" d="m255.9 139.88h-44.93" fill="#4d4d4d" stroke="#fff" stroke-width="2"/><path id="path5330" d="m255.9 151.86h-44.93" fill="#4d4d4d" stroke="#fff" stroke-width="2"/><path id="path5336" d="m255.9 163.84h-44.93" fill="#4d4d4d" stroke="#fff" stroke-width="2"/><path id="path5342" d="m255.9 175.82h-62.901" fill="#4d4d4d" stroke="#fff" stroke-width="2"/><path id="path5348" d="m255.9 187.81h-44.93" fill="#4d4d4d" stroke="#fff" stroke-width="2"/><path id="path5354" d="m255.9 199.79h-44.93" fill="#4d4d4d" stroke="#fff" stroke-width="2"/><path id="path5360" d="m255.9 211.77h-44.93" fill="#4d4d4d" stroke="#fff" stroke-width="2"/><path id="path5366" d="m255.9 223.75h-44.93" fill="#4d4d4d" stroke="#fff" stroke-width="2"/><path id="path5372" d="m255.9 235.73h-89.859" fill="#4d4d4d" stroke="#fff" stroke-width="2"/><path id="path5378" d="m255.9 247.71h-44.93" fill="#4d4d4d" stroke="#fff" stroke-width="2"/><path id="path19534" d="m255.9 258.07h-44.93" fill="#4d4d4d" stroke="#fff" stroke-width="2"/><path id="path19536" d="m255.9 270.05h-44.93" fill="#4d4d4d" stroke="#fff" stroke-width="2"/><path id="path19538" d="m255.9 282.03h-44.93" fill="#4d4d4d" stroke="#fff" stroke-width="2"/><path id="path19540" d="m255.9 294.01h-62.901" fill="#4d4d4d" stroke="#fff" stroke-width="2"/><path id="path19542" d="m255.9 305.99h-44.93" fill="#4d4d4d" stroke="#fff" stroke-width="2"/><path id="path19544" d="m255.9 317.97h-44.93" fill="#4d4d4d" stroke="#fff" stroke-width="2"/><path id="path19546" d="m255.9 329.96h-44.93" fill="#4d4d4d" stroke="#fff" stroke-width="2"/><path id="path19548" d="m255.9 341.94h-44.93" fill="#4d4d4d" stroke="#fff" stroke-width="2"/><path id="path19550" d="m255.9 353.92h-89.859" fill="#4d4d4d" stroke="#fff" stroke-width="2"/><path id="path19552" d="m255.9 365.9h-44.93" fill="#4d4d4d" stroke="#fff" stroke-width="2"/><path id="path19554" d="m255.9 377.88h-44.93" fill="#4d4d4d" stroke="#fff" stroke-width="2"/><path id="path19556" d="m255.9 389.86h-44.93" fill="#4d4d4d" stroke="#fff" stroke-width="2"/><path id="path19558" d="m255.9 401.84h-44.93" fill="#4d4d4d" stroke="#fff" stroke-width="2"/><path id="path19560" d="m255.9 413.82h-62.901" fill="#4d4d4d" stroke="#fff" stroke-width="2"/><path id="path19562" d="m255.9 425.81h-44.93" fill="#4d4d4d" stroke="#fff" stroke-width="2"/><path id="path19564" d="m255.9 437.79h-44.93" fill="#4d4d4d" stroke="#fff" stroke-width="2"/><path id="path19566" d="m255.9 449.77h-44.93" fill="#4d4d4d" stroke="#fff" stroke-width="2"/><path id="path19568" d="m255.9 461.75h-44.93" fill="#4d4d4d" stroke="#fff" stroke-width="2"/><path id="path19570" d="m255.9 473.73h-89.859" fill="#4d4d4d" stroke="#fff" stroke-width="2"/><path id="path19572" d="m255.9 485.71h-44.93" fill="#4d4d4d" stroke="#fff" stroke-width="2"/><path id="path19576" d="m255.9 498.07h-44.93" fill="#4d4d4d" stroke="#fff" stroke-width="2"/><path id="path19578" d="m255.9 510.05h-44.93" fill="#4d4d4d" stroke="#fff" stroke-width="2"/><g id="g19772" transform="matrix(-1 0 0 1 255.9 0)" fill="#4d4d4d" stroke="#fff"><g id="g19724" transform="matrix(0 2.9953 -2.9953 0 256.8 -.89859)" stroke-width=".66771"><path id="path19684" d="m7 0.3v15"/><path id="path19686" d="m11 0.3v15"/><path id="path19688" d="m15 0.3v15"/><path id="path19690" d="m19 0.3v21"/><path id="path19692" d="m23 0.3v15"/><path id="path19694" d="m27 0.3v15"/><path id="path19696" d="m31 0.3v15"/><path id="path19698" d="m35 0.3v15"/><path id="path19700" d="m39 0.3v30"/><path id="path19702" d="m43 0.3v15"/><path id="path19704" d="m47 0.3v15"/><path id="path19706" d="m51 0.3v15"/><path id="path19708" d="m55 0.3v15"/><path id="path19710" d="m59 0.3v21"/><path id="path19712" d="m63 0.3v15"/><path id="path19714" d="m67 0.3v15"/><path id="path19716" d="m71 0.3v15"/><path id="path19718" d="m75 0.3v15"/><path id="path19720" d="m79 0.3v30"/><path id="path19722" d="m83 0.3v15"/></g><g id="g19766" transform="matrix(0 2.9953 -2.9953 0 256.8 237.1)" stroke-width=".66771"><path id="path19726" d="m7 0.3v15"/><path id="path19728" d="m11 0.3v15"/><path id="path19730" d="m15 0.3v15"/><path id="path19732" d="m19 0.3v21"/><path id="path19734" d="m23 0.3v15"/><path id="path19736" d="m27 0.3v15"/><path id="path19738" d="m31 0.3v15"/><path id="path19740" d="m35 0.3v15"/><path id="path19742" d="m39 0.3v30"/><path id="path19744" d="m43 0.3v15"/><path id="path19746" d="m47 0.3v15"/><path id="path19748" d="m51 0.3v15"/><path id="path19750" d="m55 0.3v15"/><path id="path19752" d="m59 0.3v21"/><path id="path19754" d="m63 0.3v15"/><path id="path19756" d="m67 0.3v15"/><path id="path19758" d="m71 0.3v15"/><path id="path19760" d="m75 0.3v15"/><path id="path19762" d="m79 0.3v30"/><path id="path19764" d="m83 0.3v15"/></g><path id="path19768" d="m255.9 498.07h-44.93" stroke-width="2"/><path id="path19770" d="m255.9 510.05h-44.93" stroke-width="2"/></g><text id="text19828" transform="rotate(90)" x="94.785347" y="-101.59375" fill="#ffffff" font-family="'Liberation Serif'" font-size="80px" font-weight="bold" style="line-height:1.25" xml:space="preserve"><tspan id="tspan19826" x="94.785347" y="-101.59375">1</tspan><tspan id="tspan20576" x="94.785347" y="-1.59375"/></text><text id="text20646" transform="rotate(90)" x="215.76927" y="-101.51562" fill="#ffffff" font-family="'Liberation Serif'" font-size="80px" font-weight="bold" style="line-height:1.25" xml:space="preserve"><tspan id="tspan20644" x="215.76927" y="-101.51562">2</tspan></text><text id="text20652" transform="rotate(90)" x="333.78143" y="-101.90625" fill="#ffffff" font-family="'Liberation Serif'" font-size="80px" font-weight="bold" style="line-height:1.25" xml:space="preserve"><tspan id="tspan20648" x="333.78143" y="-101.90625">3</tspan><tspan id="tspan20650" x="333.78143" y="-1.90625"/></text><text id="text20658" transform="rotate(90)" x="453.92554" y="-101.67188" fill="#ffffff" font-family="'Liberation Serif'" font-size="80px" font-weight="bold" style="line-height:1.25" xml:space="preserve"><tspan id="tspan20654" x="453.92554" y="-101.67188">4</tspan><tspan id="tspan20656" x="453.92554" y="-1.6718826"/></text></svg>
